# Blender 4.0.1
# www.blender.org
mtllib terminal.mtl
o Cube
v 0.771962 0.771962 -0.771962
v 0.771962 -0.771962 -0.771962
v 0.881312 0.958239 0.711950
v 0.881312 -0.800260 0.832459
v -0.771962 0.771962 -0.771962
v -0.771962 -0.771962 -0.771962
v -0.881312 0.958239 0.711950
v -0.881312 -0.800260 0.832459
v 0.814719 0.901306 0.855183
v 0.814719 -0.724319 0.966586
v -0.814719 0.901306 0.855183
v -0.814719 -0.724319 0.966586
v 0.754143 0.840872 0.859325
v 0.754143 -0.585467 0.962445
v -0.754143 0.840872 0.859325
v -0.754143 -0.585467 0.962445
v 0.742968 0.828449 0.841497
v 0.742968 -0.575592 0.943089
v -0.742968 0.828449 0.841497
v -0.742968 -0.575592 0.943089
v -0.104875 -0.898541 -0.106631
v -0.119731 -0.901702 0.103119
v 0.104875 -0.898541 -0.106631
v 0.119731 -0.901702 0.103119
v -0.127496 -0.966856 -0.130287
v -0.145556 -0.970698 0.124705
v 0.127496 -0.966856 -0.130287
v 0.145556 -0.970698 0.124705
v -0.559880 -1.053803 -0.359602
v -0.637372 -1.070291 0.734525
v 0.534247 -1.053803 -0.359602
v 0.611739 -1.070291 0.734525
v -0.742968 -0.575592 0.943089
v -0.742968 0.828449 0.841497
v 0.742968 0.828449 0.841497
v 0.742968 -0.575592 0.943089
vn -0.0000 0.9922 -0.1246
vn -0.9019 0.0295 0.4310
vn -0.9975 -0.0026 -0.0705
vn -0.0000 -0.9824 -0.1869
vn 0.9975 -0.0026 -0.0705
vn -0.0000 -0.0000 -1.0000
vn 0.0453 0.0700 0.9965
vn -0.0000 -0.8702 0.4927
vn -0.0000 0.9293 0.3694
vn 0.9019 0.0295 0.4310
vn -0.0000 -0.8205 0.5717
vn -0.0000 0.0684 0.9977
vn -0.0453 0.0700 0.9965
vn -0.0000 0.0298 0.9996
vn -0.0000 1.0000 -0.0000
vn 0.8576 0.0371 0.5129
vn -0.0000 0.8908 0.4544
vn -0.8576 0.0371 0.5129
vn -0.0000 0.2986 0.9544
vn -0.0000 -0.9905 0.1378
vn -0.1588 -0.9869 -0.0280
vn 0.1588 -0.9869 -0.0280
vn 0.2090 0.9779 -0.0001
vn -0.9409 0.3329 -0.0616
vn 0.9409 0.3329 -0.0616
vn -0.0000 0.3272 -0.9450
vn -0.0000 -0.9999 -0.0151
vn -0.0000 0.9350 -0.3545
vn -0.0000 0.9869 0.1612
vn -0.1975 0.9803 0.0008
vn -0.0000 0.0722 0.9974
vt 0.003965 0.489742
vt 0.510110 0.489742
vt 0.510110 0.995887
vt 0.003965 0.995887
vt 0.854429 0.007751
vt 0.604429 0.007751
vt 0.503265 0.027502
vt 0.958694 0.027502
vt 0.958694 0.482931
vt 0.503265 0.482931
vt 0.995697 0.356345
vt 0.995697 0.669590
vt 0.523935 0.042809
vt 0.969027 0.042809
vt 0.969027 0.487900
vt 0.523935 0.487900
vt 0.010769 0.992897
vt 0.010769 0.501197
vt 0.502469 0.501197
vt 0.502469 0.992897
vt 0.330044 0.508169
vt 0.580044 0.508169
vt 0.080044 0.508169
vt 0.830044 0.508169
vt 0.623450 0.010556
vt 0.873450 0.010556
vt 0.125000 0.750000
vt 0.375000 0.750000
vt 0.855979 0.006201
vt 0.605979 0.006201
vt 0.611762 0.004356
vt 0.861762 0.004356
vt 0.621481 0.004356
vt 0.871481 0.004356
vt 0.995697 0.982834
vt 0.682452 0.982834
vt 0.995697 0.043101
vt 0.682452 0.669590
vt 0.035813 0.037215
vt 0.465024 0.037215
vt 0.465024 0.466427
vt 0.035813 0.466427
vt 0.625000 0.750000
vt 0.875000 0.750000
vt 0.625000 0.000000
vt 0.375000 0.000000
s 0
usemtl Material
f 1/1/1 5/2/1 7/3/1 3/4/1
f 7/5/2 8/6/2 12/6/2 11/5/2
f 8/7/3 7/8/3 5/9/3 6/10/3
f 6/11/4 2/12/4 23/12/4 21/11/4
f 2/13/5 1/14/5 3/15/5 4/16/5
f 6/17/6 5/18/6 1/19/6 2/20/6
f 10/21/7 9/22/7 13/22/7 14/21/7
f 8/23/8 4/21/8 10/21/8 12/23/8
f 3/22/9 7/24/9 11/24/9 9/22/9
f 4/21/10 3/22/10 9/22/10 10/21/10
f 13/25/11 15/26/11 19/26/11 17/25/11
f 9/22/12 11/24/12 15/24/12 13/22/12
f 11/5/13 12/6/13 16/6/13 15/5/13
f 12/23/14 10/21/14 14/21/14 16/23/14
f 20/27/15 18/28/15 36/28/15 33/27/15
f 15/29/16 16/30/16 20/30/16 19/29/16
f 16/31/17 14/32/17 18/32/17 20/31/17
f 14/33/18 13/34/18 17/34/18 18/33/18
f 24/35/19 22/36/19 26/36/19 28/35/19
f 4/35/20 8/36/20 22/36/20 24/35/20
f 8/37/21 6/11/21 21/11/21 22/37/21
f 2/12/22 4/35/22 24/35/22 23/12/22
f 27/12/23 28/35/23 32/35/23 31/12/23
f 22/37/24 21/11/24 25/11/24 26/37/24
f 23/12/25 24/35/25 28/35/25 27/12/25
f 21/11/26 23/12/26 27/12/26 25/11/26
f 29/38/27 31/12/27 32/35/27 30/36/27
f 25/11/28 27/12/28 31/12/28 29/11/28
f 28/35/29 26/36/29 30/36/29 32/35/29
f 26/37/30 25/11/30 29/11/30 30/37/30
f 36/39/31 35/40/31 34/41/31 33/42/31
f 18/28/15 17/43/15 35/43/15 36/28/15
f 17/43/15 19/44/15 34/44/15 35/43/15
f 19/45/15 20/46/15 33/46/15 34/45/15
