# Blender 4.0.1
# www.blender.org
mtllib bed.mtl
o Cube
v 0.866474 0.144333 -1.782108
v 0.866474 -0.144333 -1.782108
v 0.000000 0.144333 -1.578709
v 0.000000 -0.144333 -1.578709
v 0.000000 -0.144333 0.000000
v 0.000000 -0.144333 -1.782108
v 0.866474 0.144333 -1.578709
v 0.866474 0.144333 0.000000
v 0.866474 -0.144333 -1.578709
v 0.866474 -0.144333 0.000000
v 0.000000 -0.144333 -1.782108
v 0.866474 -0.144333 -1.782108
v 0.866474 -0.144333 0.000000
v 0.000000 0.144333 -1.782108
v 0.000000 -0.144333 0.000000
v 0.000000 0.144333 0.000000
v 0.000000 -0.144333 -1.578709
v 0.866474 -0.144333 -1.578709
v 0.658622 -0.144333 -1.578709
v 0.658622 0.144333 -1.782108
v 0.658622 0.144333 0.000000
v 0.658622 -0.144333 -1.782108
v 0.658622 -0.144333 0.000000
v 0.658622 -0.144333 0.000000
v 0.658622 -0.144333 -1.782108
v 0.658622 0.144333 -1.578709
v 0.866474 -0.553994 -1.578709
v 0.866474 -0.553994 -1.782108
v 0.658622 -0.553994 -1.578709
v 0.658622 -0.553994 -1.782108
v -0.866474 0.144333 -1.782108
v -0.866474 -0.144333 -1.782108
v -0.866474 0.144333 -1.578709
v -0.866474 0.144333 0.000000
v -0.866474 -0.144333 -1.578709
v -0.866474 -0.144333 0.000000
v -0.866474 -0.144333 -1.782108
v -0.866474 -0.144333 0.000000
v -0.866474 -0.144333 -1.578709
v -0.658622 -0.144333 -1.578709
v -0.658622 0.144333 -1.782108
v -0.658622 0.144333 0.000000
v -0.658622 -0.144333 -1.782108
v -0.658622 -0.144333 0.000000
v -0.658622 -0.144333 0.000000
v -0.658622 -0.144333 -1.782108
v -0.658622 0.144333 -1.578709
v -0.866474 -0.553994 -1.578709
v -0.866474 -0.553994 -1.782108
v -0.658622 -0.553994 -1.578709
v -0.658622 -0.553994 -1.782108
v 0.866474 0.144333 1.782108
v 0.866474 -0.144333 1.782108
v 0.000000 0.144333 1.578709
v 0.000000 -0.144333 1.578709
v 0.000000 -0.144333 1.782108
v 0.866474 0.144333 1.578709
v 0.866474 -0.144333 1.578709
v 0.000000 -0.144333 1.782108
v 0.866474 -0.144333 1.782108
v 0.000000 0.144333 1.782108
v 0.000000 -0.144333 1.578709
v 0.866474 -0.144333 1.578709
v 0.658622 -0.144333 1.578709
v 0.658622 0.144333 1.782108
v 0.658622 -0.144333 1.782108
v 0.658622 -0.144333 1.782108
v 0.658622 0.144333 1.578709
v 0.866474 -0.553994 1.578709
v 0.866474 -0.553994 1.782108
v 0.658622 -0.553994 1.578709
v 0.658622 -0.553994 1.782108
v -0.866474 0.144333 1.782108
v -0.866474 -0.144333 1.782108
v -0.866474 0.144333 1.578709
v -0.866474 -0.144333 1.578709
v -0.866474 -0.144333 1.782108
v -0.866474 -0.144333 1.578709
v -0.658622 -0.144333 1.578709
v -0.658622 0.144333 1.782108
v -0.658622 -0.144333 1.782108
v -0.658622 -0.144333 1.782108
v -0.658622 0.144333 1.578709
v -0.866474 -0.553994 1.578709
v -0.866474 -0.553994 1.782108
v -0.658622 -0.553994 1.578709
v -0.658622 -0.553994 1.782108
vn -0.0000 1.0000 -0.0000
vn -0.0000 -0.0000 -1.0000
vn 1.0000 -0.0000 -0.0000
vn -0.0000 -1.0000 -0.0000
vn -0.0000 -0.0000 1.0000
vn -1.0000 -0.0000 -0.0000
vt 0.250000 0.625000
vt 0.250000 0.514267
vt 0.250000 0.514267
vt 0.625000 0.919458
vt 0.375000 0.919458
vt 0.375000 0.905975
vt 0.625000 0.905975
vt 0.625000 0.895454
vt 0.375000 0.895454
vt 0.375000 0.784720
vt 0.625000 0.784720
vt 0.345015 0.625000
vt 0.250000 0.500000
vt 0.376319 0.994655
vt 0.009267 0.994655
vt 0.009267 0.939540
vt 0.376319 0.939540
vt 0.009267 0.511767
vt 0.376319 0.511767
vt 0.375000 0.500000
vt 0.375000 0.514267
vt 0.889304 0.483549
vt 0.889304 0.513534
vt 0.375000 0.470015
vt 0.375000 0.625000
vt 0.859318 0.527801
vt 0.889304 0.527801
vt 0.889304 0.638534
vt 0.859318 0.638534
vt 0.625000 0.909720
vt 0.375000 0.909720
vt 0.764304 0.527801
vt 0.764304 0.638534
vt 0.375000 0.375000
vt 0.764304 0.513534
vt 0.859318 0.513534
vt 0.492155 0.939540
vt 0.492155 0.511767
vt 0.492155 0.994655
vt 0.625000 0.962181
vt 0.375000 0.962181
vt 0.000000 0.000000
vt 0.625000 0.529985
vt 0.625000 0.500000
vt 0.375000 0.529985
vt 0.625000 0.485733
vt 0.625000 0.375000
vt 0.375000 0.375000
vt 0.375000 0.485733
vt 0.196049 0.305598
vt 0.196049 0.319865
vt 0.291064 0.319865
vt 0.291064 0.305598
vt 0.196049 0.430598
vt 0.291064 0.430598
vt 0.166064 0.319865
vt 0.166064 0.430598
vt 0.166064 0.305598
vt 0.625000 0.625000
vt 0.375000 0.625000
s 0
usemtl Material
f 15/1/1 17/2/1 4/3/1 5/1/1
f 22/4/2 20/5/2 1/6/2 2/7/2
f 9/8/3 7/9/3 8/10/3 10/11/3
f 23/12/1 15/1/1 5/1/1 24/12/1
f 17/2/1 11/13/1 6/13/1 4/3/1
f 20/14/1 14/15/1 3/16/1 26/17/1
f 26/17/1 3/16/1 16/18/1 21/19/1
f 2/20/1 9/21/1 18/21/1 12/20/1
f 25/22/2 12/23/2 28/23/2 30/22/2
f 22/24/1 2/20/1 12/20/1 25/24/1
f 9/21/1 10/25/1 13/25/1 18/21/1
f 19/26/4 18/27/4 13/28/4 24/29/4
f 2/30/3 1/31/3 7/9/3 9/8/3
f 4/32/4 19/26/4 24/29/4 5/33/4
f 11/34/1 22/24/1 25/24/1 6/34/1
f 6/35/4 25/36/4 19/26/4 4/32/4
f 7/37/1 26/17/1 21/19/1 8/38/1
f 1/39/1 20/14/1 26/17/1 7/37/1
f 10/25/1 23/12/1 24/12/1 13/25/1
f 11/40/2 14/41/2 20/5/2 22/4/2
f 24/42/3 19/42/3 25/42/3 22/42/3 20/42/3 26/42/3 21/42/3 23/42/3
f 30/36/4 28/23/4 27/27/4 29/26/4
f 18/27/5 19/26/5 29/26/5 27/27/5
f 12/23/3 18/27/3 27/27/3 28/23/3
f 19/26/6 25/36/6 30/36/6 29/26/6
f 43/4/2 32/7/2 31/6/2 41/5/2
f 35/8/6 36/11/6 34/10/6 33/9/6
f 44/12/1 45/12/1 5/1/1 15/1/1
f 41/14/1 47/17/1 3/16/1 14/15/1
f 47/17/1 42/19/1 16/18/1 3/16/1
f 32/20/1 37/20/1 39/21/1 35/21/1
f 46/22/2 51/22/2 49/23/2 37/23/2
f 43/24/1 46/24/1 37/20/1 32/20/1
f 35/21/1 39/21/1 38/25/1 36/25/1
f 40/26/4 45/29/4 38/28/4 39/27/4
f 32/30/6 35/8/6 33/9/6 31/31/6
f 4/32/4 5/33/4 45/29/4 40/26/4
f 11/34/1 6/34/1 46/24/1 43/24/1
f 6/35/4 4/32/4 40/26/4 46/36/4
f 33/37/1 34/38/1 42/19/1 47/17/1
f 31/39/1 33/37/1 47/17/1 41/14/1
f 36/25/1 38/25/1 45/12/1 44/12/1
f 11/40/2 43/4/2 41/5/2 14/41/2
f 45/42/6 44/42/6 42/42/6 47/42/6 41/42/6 43/42/6 46/42/6 40/42/6
f 51/36/4 50/26/4 48/27/4 49/23/4
f 39/27/5 48/27/5 50/26/5 40/26/5
f 37/23/6 49/23/6 48/27/6 39/27/6
f 40/26/3 50/26/3 51/36/3 46/36/3
f 15/1/1 5/1/1 55/3/1 62/2/1
f 66/43/5 53/44/5 52/20/5 65/45/5
f 58/46/3 10/47/3 8/48/3 57/49/3
f 62/2/1 55/3/1 56/13/1 59/13/1
f 65/50/1 68/51/1 54/52/1 61/53/1
f 68/51/1 21/54/1 16/55/1 54/52/1
f 53/20/1 60/20/1 63/21/1 58/21/1
f 67/22/5 72/22/5 70/23/5 60/23/5
f 66/24/1 67/24/1 60/20/1 53/20/1
f 58/21/1 63/21/1 13/25/1 10/25/1
f 64/26/4 24/29/4 13/28/4 63/27/4
f 53/44/3 58/46/3 57/49/3 52/20/3
f 55/32/4 5/33/4 24/29/4 64/26/4
f 59/34/1 56/34/1 67/24/1 66/24/1
f 56/35/4 55/32/4 64/26/4 67/36/4
f 57/56/1 8/57/1 21/54/1 68/51/1
f 52/58/1 57/56/1 68/51/1 65/50/1
f 59/59/5 66/43/5 65/45/5 61/60/5
f 24/42/3 23/42/3 21/42/3 68/42/3 65/42/3 66/42/3 67/42/3 64/42/3
f 72/36/4 71/26/4 69/27/4 70/23/4
f 63/27/2 69/27/2 71/26/2 64/26/2
f 60/23/3 70/23/3 69/27/3 63/27/3
f 64/26/6 71/26/6 72/36/6 67/36/6
f 81/43/5 80/45/5 73/20/5 74/44/5
f 76/46/6 75/49/6 34/48/6 36/47/6
f 80/50/1 61/53/1 54/52/1 83/51/1
f 83/51/1 54/52/1 16/55/1 42/54/1
f 74/20/1 76/21/1 78/21/1 77/20/1
f 82/22/5 77/23/5 85/23/5 87/22/5
f 81/24/1 74/20/1 77/20/1 82/24/1
f 76/21/1 36/25/1 38/25/1 78/21/1
f 79/26/4 78/27/4 38/28/4 45/29/4
f 74/44/6 73/20/6 75/49/6 76/46/6
f 55/32/4 79/26/4 45/29/4 5/33/4
f 59/34/1 81/24/1 82/24/1 56/34/1
f 56/35/4 82/36/4 79/26/4 55/32/4
f 75/56/1 83/51/1 42/54/1 34/57/1
f 73/58/1 80/50/1 83/51/1 75/56/1
f 59/59/5 61/60/5 80/45/5 81/43/5
f 45/42/6 79/42/6 82/42/6 81/42/6 80/42/6 83/42/6 42/42/6 44/42/6
f 87/36/4 85/23/4 84/27/4 86/26/4
f 78/27/2 79/26/2 86/26/2 84/27/2
f 77/23/6 78/27/6 84/27/6 85/23/6
f 79/26/3 82/36/3 87/36/3 86/26/3
